<svg version="1.1" viewBox="0.0 0.0 295.37270341207346 247.81627296587928" fill="none" stroke="none" stroke-linecap="square" stroke-miterlimit="10" xmlns:xlink="http://www.w3.org/1999/xlink" xmlns="http://www.w3.org/2000/svg"><clipPath id="p.0"><path d="m0 0l295.3727 0l0 247.81627l-295.3727 0l0 -247.81627z" clip-rule="nonzero"/></clipPath><g clip-path="url(#p.0)"><path fill="#000000" fill-opacity="0.0" d="m0 0l295.3727 0l0 247.81627l-295.3727 0z" fill-rule="evenodd"/><path fill="#000000" fill-opacity="0.0" d="m17.52231 122.7769l0 0c0 -60.281662 58.10428 -109.149605 129.77953 -109.149605l0 0c71.67526 0 129.77953 48.867943 129.77953 109.149605l0 0c0 60.281662 -58.104263 109.14961 -129.77953 109.14961l0 0c-71.67525 0 -129.77953 -48.86795 -129.77953 -109.14961z" fill-rule="evenodd"/><path stroke="#000000" stroke-width="1.0" stroke-linejoin="round" stroke-linecap="butt" d="m17.52231 122.7769l0 0c0 -60.281662 58.10428 -109.149605 129.77953 -109.149605l0 0c71.67526 0 129.77953 48.867943 129.77953 109.149605l0 0c0 60.281662 -58.104263 109.14961 -129.77953 109.14961l0 0c-71.67525 0 -129.77953 -48.86795 -129.77953 -109.14961z" fill-rule="evenodd"/></g></svg>