<svg version="1.1" viewBox="0.0 0.0 295.37270341207346 247.81627296587928" fill="none" stroke="none" stroke-linecap="square" stroke-miterlimit="10" xmlns:xlink="http://www.w3.org/1999/xlink" xmlns="http://www.w3.org/2000/svg"><clipPath id="p.0"><path d="m0 0l295.3727 0l0 247.81627l-295.3727 0l0 -247.81627z" clip-rule="nonzero"/></clipPath><g clip-path="url(#p.0)"><path fill="#000000" fill-opacity="0.0" d="m0 0l295.3727 0l0 247.81627l-295.3727 0z" fill-rule="evenodd"/><path fill="#000000" fill-opacity="0.0" d="m22.630175 89.926216l0 0c0 -33.215424 26.92642 -60.141846 60.141846 -60.141846l133.66907 0l0 0c15.950607 0 31.247925 6.336355 42.52672 17.615137c11.278778 11.278786 17.615112 26.5761 17.615112 42.526707l0 51.653313c0 33.215424 -26.926407 60.141846 -60.14183 60.141846l-133.66907 0c-33.215424 0 -60.141846 -26.926422 -60.141846 -60.141846z" fill-rule="evenodd"/><path stroke="#000000" stroke-width="1.0" stroke-linejoin="round" stroke-linecap="butt" d="m22.630175 89.926216l0 0c0 -33.215424 26.92642 -60.141846 60.141846 -60.141846l133.66907 0l0 0c15.950607 0 31.247925 6.336355 42.52672 17.615137c11.278778 11.278786 17.615112 26.5761 17.615112 42.526707l0 51.653313c0 33.215424 -26.926407 60.141846 -60.14183 60.141846l-133.66907 0c-33.215424 0 -60.141846 -26.926422 -60.141846 -60.141846z" fill-rule="evenodd"/></g></svg>